<?xml version="1.0" encoding="utf-8"?>
<!-- Generator: Adobe Illustrator 24.1.0, SVG Export Plug-In . SVG Version: 6.00 Build 0)  -->
<svg version="1.1" id="Layer_1" xmlns="http://www.w3.org/2000/svg" xmlns:xlink="http://www.w3.org/1999/xlink" x="0px" y="0px"
	 viewBox="0 0 46.6 30.5" enable-background="new 0 0 46.6 30.5" xml:space="preserve">
<text transform="matrix(1 0 0 1 2.2987 11.6218)"><tspan x="0" y="0" fill="#DA1C5C" font-family="'MarkerFelt-Thin'" font-size="12px">w</tspan><tspan x="8.6" y="0" fill="#DA1C5C" font-family="'MarkerFelt-Thin'" font-size="12px">a</tspan><tspan x="14.7" y="0" fill="#DA1C5C" font-family="'MarkerFelt-Thin'" font-size="12px">l</tspan><tspan x="17.6" y="0" fill="#DA1C5C" font-family="'MarkerFelt-Thin'" font-size="12px">k</tspan></text>
<text transform="matrix(1 0 0 1 28.1089 27.847)"><tspan x="0" y="0" fill="#1C75BC" font-family="'MarkerFelt-Thin'" font-size="12px">m</tspan><tspan x="8.6" y="0" fill="#1C75BC" font-family="'MarkerFelt-Thin'" font-size="12px">e</tspan><tspan x="13.9" y="0" fill="#1C75BC" font-family="'MarkerFelt-Thin'" font-size="12px">!</tspan></text>
<text transform="matrix(1 0 0 1 12.4745 20.4524)"><tspan x="0" y="0" fill="#1C75BC" font-family="'MarkerFelt-Thin'" font-size="12px">w</tspan><tspan x="9.3" y="0" fill="#1C75BC" font-family="'MarkerFelt-Thin'" font-size="12px">i</tspan><tspan x="12.4" y="0" fill="#1C75BC" font-family="'MarkerFelt-Thin'" font-size="12px">t</tspan><tspan x="17.4" y="0" fill="#1C75BC" font-family="'MarkerFelt-Thin'" font-size="12px">h</tspan></text>
<g>
	<circle fill="#ABD037" cx="23.4" cy="25.2" r="3.4"/>
	<path fill="#FFFBCC" d="M21.2,23.5c-0.4,0.3-0.8,0.5-1.1,0.7c0,0.1-0.1,0.3-0.1,0.4c0.4-0.2,0.9-0.4,1.5-0.8
		c0.8-0.6,2.3-1.1,3.2-0.2c0.5,0.5,0.8,1.1,0.8,1.7c0,0.6-0.3,1.2-0.8,1.6c-0.8,0.7-1.7,0.7-2.6,0.6c-0.4,0-0.8-0.1-1.2,0
		c0.1,0.1,0.2,0.2,0.3,0.3c0.3,0,0.6,0,0.9,0c0.6,0,1.2,0.1,1.8-0.1c0.4-0.1,0.8-0.3,1.1-0.6c0.6-0.5,0.9-1.2,0.9-1.9
		c0-0.7-0.3-1.4-0.9-1.9C23.8,22.2,22.1,22.8,21.2,23.5z"/>
</g>
</svg>
