<?xml version="1.0" encoding="utf-8"?>
<!-- Generator: Adobe Illustrator 24.1.0, SVG Export Plug-In . SVG Version: 6.00 Build 0)  -->
<svg version="1.1" id="Layer_1" xmlns="http://www.w3.org/2000/svg" xmlns:xlink="http://www.w3.org/1999/xlink" x="0px" y="0px"
	 viewBox="0 0 400 261.8" enable-background="new 0 0 400 261.8" xml:space="preserve">
<text transform="matrix(1 0 0 1 18.1907 97.9738)" fill="#FFFFFF" font-family="'MarkerFelt-Thin'" font-size="104.8146px">w</text>
<text transform="matrix(1 0 0 1 93.3088 97.9738)" fill="#FFFFFF" font-family="'MarkerFelt-Thin'" font-size="104.8146px">a</text>
<text transform="matrix(1 0 0 1 146.5891 97.9738)" fill="#FFFFFF" font-family="'MarkerFelt-Thin'" font-size="104.8146px">l</text>
<text transform="matrix(1 0 0 1 171.9192 97.9738)" fill="#FFFFFF" font-family="'MarkerFelt-Thin'" font-size="104.8146px">k</text>
<text transform="matrix(1 0 0 1 243.6331 239.6955)" fill="#FFFFFF" font-family="'MarkerFelt-Thin'" font-size="104.8146px">m</text>
<text transform="matrix(1 0 0 1 318.7473 239.6955)" fill="#FFFFFF" font-family="'MarkerFelt-Thin'" font-size="104.8146px">e</text>
<text transform="matrix(1 0 0 1 365.0413 239.6955)" fill="#FFFFFF" font-family="'MarkerFelt-Thin'" font-size="104.8146px">!</text>
<text transform="matrix(1 0 0 1 107.0725 175.1056)" fill="#FFFFFF" font-family="'MarkerFelt-Thin'" font-size="104.8146px">w</text>
<text transform="matrix(1 0 0 1 188.302 175.1056)" fill="#FFFFFF" font-family="'MarkerFelt-Thin'" font-size="104.8146px">i</text>
<text transform="matrix(1 0 0 1 215.3792 175.1056)" fill="#FFFFFF" font-family="'MarkerFelt-Thin'" font-size="104.8146px">t</text>
<text transform="matrix(1 0 0 1 259.054 175.1056)" fill="#FFFFFF" font-family="'MarkerFelt-Thin'" font-size="104.8146px">h</text>
<g>
	<path fill="#FFFFFF" d="M195.9,237c-2.5-0.2-6.1-0.5-9.8-0.7c-1.6-0.1-3.3,0.1-4.9,0.1c-0.4,0-0.9-0.1-1.1-0.4
		c-4.5-5.2-7-11.2-7.2-18.1c-0.1-1.9,0.1-3.9,0.3-5.9c0-0.5,0.5-1.1,0.9-1.3c4.7-2.2,9.3-4.7,13.7-7.6c4.5-3,9.6-4.8,15.1-4.8
		c4.8,0,8.9,1.8,12,5.4c2.9,3.3,5.1,6.9,5.7,11.3c0.9,6.4-1.6,11.5-6.2,15.8C209.5,235.4,203.6,237.2,195.9,237z"/>
	<path fill="#FFFFFF" d="M174.3,207.4c2.7-9.4,12.6-20.2,27.6-20.6c13.3-0.3,25.5,8.6,29.2,21.6c3.7,13.1-2,27.1-13.9,33.9
		c-11.5,6.6-25.5,4.2-33.7-3c0.5,0,0.9,0,1.3,0c5.1,0.1,10.2,0.2,15.3,0.2c10.6-0.2,19.3-6.5,22.7-15.2c3.3-8.5,0.8-17.9-6-24
		c-7.2-6.5-15.3-6.8-24-3.9c-3.5,1.2-6.7,3.1-9.8,5.3C180.4,203.6,177.4,205.4,174.3,207.4z"/>
</g>
</svg>
