<?xml version="1.0" encoding="utf-8"?>
<!-- Generator: Adobe Illustrator 24.1.0, SVG Export Plug-In . SVG Version: 6.00 Build 0)  -->
<svg version="1.1" id="Layer_1" xmlns="http://www.w3.org/2000/svg" xmlns:xlink="http://www.w3.org/1999/xlink" x="0px" y="0px"
	 viewBox="0 0 504 360" style="enable-background:new 0 0 504 360;" xml:space="preserve">
<style type="text/css">
	.st0{fill:#FFFFFF;stroke:#000000;stroke-miterlimit:10;}
	.st1{fill:none;stroke:#000000;stroke-miterlimit:10;}
	.st2{fill:#ED1C24;}
	.st3{font-family:'MyriadPro-Regular';}
	.st4{font-size:12px;}
	.st5{enable-background:new    ;}
	.st6{fill:#00A651;}
</style>
<rect x="26.2" y="99.5" class="st0" width="148.8" height="184.2"/>
<rect x="346.4" y="100.8" class="st0" width="132.2" height="98.1"/>
<g>
	<line class="st1" x1="332.1" y1="151.4" x2="346.4" y2="138.2"/>
	<line class="st1" x1="346.4" y1="161.4" x2="332.1" y2="151.4"/>
</g>
<text transform="matrix(1 0 0 1 31.1617 115.5279)" class="st2 st3 st4">USER</text>
<text transform="matrix(1 0 0 1 31.1617 129.9279)" class="st2 st3 st4">userID: ObjectID</text>
<text transform="matrix(1 0 0 1 31.1617 144.3279)" class="st2 st3 st4">pass</text>
<text transform="matrix(1 0 0 1 53.2617 144.3279)" class="st2 st3 st4">w</text>
<text transform="matrix(1 0 0 1 61.9617 144.3279)" class="st2 st3 st4">o</text>
<text transform="matrix(1 0 0 1 68.5617 144.3279)" class="st2 st3 st4">r</text>
<text transform="matrix(1 0 0 1 72.3617 144.3279)" class="st2 st3 st4">d: st</text>
<text transform="matrix(1 0 0 1 92.8617 144.3279)" class="st2 st3 st4">r</text>
<text transform="matrix(1 0 0 1 96.8617 144.3279)" class="st2 st3 st4">ing</text>
<text transform="matrix(1 0 0 1 31.1617 158.7279)" class="st2 st3 st4">user name: st</text>
<text transform="matrix(1 0 0 1 97.2617 158.7279)" class="st2 st3 st4">r</text>
<text transform="matrix(1 0 0 1 101.1617 158.7279)" class="st2 st3 st4">ing</text>
<text transform="matrix(1 0 0 1 31.1617 173.1279)" class="st2 st3 st4">user img: st</text>
<text transform="matrix(1 0 0 1 88.2617 173.1279)" class="st2 st3 st4">r</text>
<text transform="matrix(1 0 0 1 92.2617 173.1279)" class="st2 st3 st4">ing</text>
<text transform="matrix(1 0 0 1 31.1617 189.9279)" class="st5"><tspan x="0" y="0" class="st2 st3 st4">booked appts [</tspan><tspan x="75.1" y="0" class="st6 st3 st4">ObjectID</tspan><tspan x="119.3" y="0" class="st2 st3 st4">]</tspan></text>
<text transform="matrix(1 0 0 1 31.1617 204.3279)" class="st2 st3 st4">full name: st</text>
<text transform="matrix(1 0 0 1 91.6617 204.3279)" class="st2 st3 st4">r</text>
<text transform="matrix(1 0 0 1 95.6617 204.3279)" class="st2 st3 st4">ing</text>
<text transform="matrix(1 0 0 1 31.1617 218.7279)" class="st2 st3 st4">bi</text>
<text transform="matrix(1 0 0 1 40.7617 218.7279)" class="st2 st3 st4">r</text>
<text transform="matrix(1 0 0 1 44.9617 218.7279)" class="st2 st3 st4">th d</text>
<text transform="matrix(1 0 0 1 64.9617 218.7279)" class="st2 st3 st4">a</text>
<text transform="matrix(1 0 0 1 70.6617 218.7279)" class="st2 st3 st4">t</text>
<text transform="matrix(1 0 0 1 74.5617 218.7279)" class="st2 st3 st4">e: D</text>
<text transform="matrix(1 0 0 1 93.6617 218.7279)" class="st2 st3 st4">a</text>
<text transform="matrix(1 0 0 1 99.3617 218.7279)" class="st2 st3 st4">t</text>
<text transform="matrix(1 0 0 1 103.2617 218.7279)" class="st2 st3 st4">e</text>
<text transform="matrix(1 0 0 1 31.1617 233.1279)" class="st2 st3 st4">email: st</text>
<text transform="matrix(1 0 0 1 72.3617 233.1279)" class="st2 st3 st4">r</text>
<text transform="matrix(1 0 0 1 76.3617 233.1279)" class="st2 st3 st4">ing</text>
<text transform="matrix(1 0 0 1 31.1617 247.5279)" class="st2 st3 st4">img: st</text>
<text transform="matrix(1 0 0 1 64.4617 247.5279)" class="st2 st3 st4">r</text>
<text transform="matrix(1 0 0 1 68.3617 247.5279)" class="st2 st3 st4">ing</text>
<text transform="matrix(1 0 0 1 31.1617 261.9279)" class="st2 st3 st4">gende</text>
<text transform="matrix(1 0 0 1 63.3617 261.9279)" class="st2 st3 st4">r</text>
<text transform="matrix(1 0 0 1 67.3617 261.9279)" class="st2 st3 st4">: st</text>
<text transform="matrix(1 0 0 1 81.0617 261.9279)" class="st2 st3 st4">r</text>
<text transform="matrix(1 0 0 1 85.0617 261.9279)" class="st2 st3 st4">ing</text>
<text transform="matrix(1 0 0 1 352.316 115.5276)" class="st6 st3 st4">DOGS</text>
<text transform="matrix(1 0 0 1 352.316 129.9276)" class="st6 st3 st4">dogID: ObjectID</text>
<text transform="matrix(1 0 0 1 352.316 144.3276)" class="st6 st3 st4">name: st</text>
<text transform="matrix(1 0 0 1 394.516 144.3276)" class="st6 st3 st4">r</text>
<text transform="matrix(1 0 0 1 398.516 144.3276)" class="st6 st3 st4">ing</text>
<text transform="matrix(1 0 0 1 352.316 158.7276)" class="st6 st3 st4">b</text>
<text transform="matrix(1 0 0 1 359.116 158.7276)" class="st6 st3 st4">r</text>
<text transform="matrix(1 0 0 1 362.916 158.7276)" class="st6 st3 st4">eed: st</text>
<text transform="matrix(1 0 0 1 395.516 158.7276)" class="st6 st3 st4">r</text>
<text transform="matrix(1 0 0 1 399.416 158.7276)" class="st6 st3 st4">ing</text>
<text transform="matrix(1 0 0 1 352.316 173.1276)" class="st5"><tspan x="0" y="0" class="st6 st3 st4">img: st</tspan><tspan x="0" y="14.4" class="st6 st3 st4">booked appts [</tspan><tspan x="75.1" y="14.4" class="st2 st3 st4">ObjectID</tspan><tspan x="119.3" y="14.4" class="st6 st3 st4">]</tspan></text>
<text transform="matrix(1 0 0 1 385.616 173.1276)" class="st6 st3 st4">r</text>
<text transform="matrix(1 0 0 1 389.516 173.1276)" class="st6 st3 st4">ing</text>
<line class="st1" x1="346.4" y1="151.9" x2="175" y2="151.9"/>
<g>
	<line class="st1" x1="175" y1="138.2" x2="189.4" y2="151.4"/>
	<line class="st1" x1="189.4" y1="151.4" x2="175" y2="161.4"/>
</g>
<circle class="st0" cx="323.1" cy="151.9" r="4.6"/>
<circle class="st0" cx="196.8" cy="152.4" r="4.6"/>
</svg>
