<?xml version="1.0" encoding="utf-8"?>
<!-- Generator: Adobe Illustrator 24.1.0, SVG Export Plug-In . SVG Version: 6.00 Build 0)  -->
<svg version="1.1" id="Layer_1" xmlns="http://www.w3.org/2000/svg" xmlns:xlink="http://www.w3.org/1999/xlink" x="0px" y="0px"
	 viewBox="0 0 504 360" enable-background="new 0 0 504 360" xml:space="preserve">
<rect x="172.2" y="46" fill="#FFFFFF" stroke="#000000" stroke-miterlimit="10" width="170.9" height="98.1"/>
<rect x="16.2" y="159.5" fill="#FFFFFF" stroke="#000000" stroke-miterlimit="10" width="204.9" height="184.2"/>
<rect x="336.4" y="160.8" fill="#FFFFFF" stroke="#000000" stroke-miterlimit="10" width="132.2" height="98.1"/>
<g>
	<line fill="none" stroke="#000000" stroke-miterlimit="10" x1="157.9" y1="93.1" x2="172.2" y2="79.9"/>
	<line fill="none" stroke="#000000" stroke-miterlimit="10" x1="172.2" y1="103.1" x2="157.9" y2="93.1"/>
</g>
<text transform="matrix(1 0 0 1 21.1617 175.5279)" fill="#ED1C24" font-family="'MyriadPro-Regular'" font-size="12px">USER</text>
<text transform="matrix(1 0 0 1 21.1617 189.9279)" fill="#ED1C24" font-family="'MyriadPro-Regular'" font-size="12px">userID: Obje</text>
<text transform="matrix(1 0 0 1 82.3617 189.9279)" fill="#ED1C24" font-family="'MyriadPro-Regular'" font-size="12px">c</text>
<text transform="matrix(1 0 0 1 87.8617 189.9279)" fill="#ED1C24" font-family="'MyriadPro-Regular'" font-size="12px">tID</text>
<text transform="matrix(1 0 0 1 21.1617 204.3279)" fill="#ED1C24" font-family="'MyriadPro-Regular'" font-size="12px">pass</text>
<text transform="matrix(1 0 0 1 43.2617 204.3279)" fill="#ED1C24" font-family="'MyriadPro-Regular'" font-size="12px">w</text>
<text transform="matrix(1 0 0 1 51.9617 204.3279)" fill="#ED1C24" font-family="'MyriadPro-Regular'" font-size="12px">o</text>
<text transform="matrix(1 0 0 1 58.5617 204.3279)" fill="#ED1C24" font-family="'MyriadPro-Regular'" font-size="12px">r</text>
<text transform="matrix(1 0 0 1 62.3617 204.3279)" fill="#ED1C24" font-family="'MyriadPro-Regular'" font-size="12px">d: st</text>
<text transform="matrix(1 0 0 1 82.8617 204.3279)" fill="#ED1C24" font-family="'MyriadPro-Regular'" font-size="12px">r</text>
<text transform="matrix(1 0 0 1 86.8617 204.3279)" fill="#ED1C24" font-family="'MyriadPro-Regular'" font-size="12px">ing</text>
<text transform="matrix(1 0 0 1 21.1617 218.7279)" fill="#ED1C24" font-family="'MyriadPro-Regular'" font-size="12px">user name: st</text>
<text transform="matrix(1 0 0 1 87.2617 218.7279)" fill="#ED1C24" font-family="'MyriadPro-Regular'" font-size="12px">r</text>
<text transform="matrix(1 0 0 1 91.1617 218.7279)" fill="#ED1C24" font-family="'MyriadPro-Regular'" font-size="12px">ing</text>
<text transform="matrix(1 0 0 1 21.1617 233.1279)" fill="#ED1C24" font-family="'MyriadPro-Regular'" font-size="12px">user img: st</text>
<text transform="matrix(1 0 0 1 78.2617 233.1279)" fill="#ED1C24" font-family="'MyriadPro-Regular'" font-size="12px">r</text>
<text transform="matrix(1 0 0 1 82.2617 233.1279)" fill="#ED1C24" font-family="'MyriadPro-Regular'" font-size="12px">ing</text>
<text transform="matrix(1 0 0 1 21.1617 247.5279)" enable-background="new    "><tspan x="0" y="0" fill="#ED1C24" font-family="'MyriadPro-Regular'" font-size="12px">timestamp(user c</tspan><tspan x="86.8" y="0" fill="#ED1C24" font-family="'MyriadPro-Regular'" font-size="12px">r</tspan><tspan x="90.6" y="0" fill="#ED1C24" font-family="'MyriadPro-Regular'" font-size="12px">e</tspan><tspan x="96.6" y="0" fill="#ED1C24" font-family="'MyriadPro-Regular'" font-size="12px">a</tspan><tspan x="102.3" y="0" fill="#ED1C24" font-family="'MyriadPro-Regular'" font-size="12px">tion d</tspan><tspan x="131.7" y="0" fill="#ED1C24" font-family="'MyriadPro-Regular'" font-size="12px">a</tspan><tspan x="137.4" y="0" fill="#ED1C24" font-family="'MyriadPro-Regular'" font-size="12px">t</tspan><tspan x="141.3" y="0" fill="#ED1C24" font-family="'MyriadPro-Regular'" font-size="12px">e): st</tspan><tspan x="164.5" y="0" fill="#ED1C24" font-family="'MyriadPro-Regular'" font-size="12px">r</tspan><tspan x="168.4" y="0" fill="#ED1C24" font-family="'MyriadPro-Regular'" font-size="12px">ing</tspan></text>
<text transform="matrix(1 0 0 1 21.1617 261.9279)" enable-background="new    "><tspan x="0" y="0" fill="#ED1C24" font-family="'MyriadPro-Regular'" font-size="12px">booked app</tspan><tspan x="0" y="14.4" fill="#ED1C24" font-family="'MyriadPro-Regular'" font-size="12px">full name: st</tspan><tspan x="60.5" y="14.4" fill="#ED1C24" font-family="'MyriadPro-Regular'" font-size="12px">r</tspan><tspan x="64.5" y="14.4" fill="#ED1C24" font-family="'MyriadPro-Regular'" font-size="12px">ing</tspan><tspan x="0" y="28.8" fill="#ED1C24" font-family="'MyriadPro-Regular'" font-size="12px">bi</tspan><tspan x="9.6" y="28.8" fill="#ED1C24" font-family="'MyriadPro-Regular'" font-size="12px">r</tspan><tspan x="13.8" y="28.8" fill="#ED1C24" font-family="'MyriadPro-Regular'" font-size="12px">th d</tspan><tspan x="33.8" y="28.8" fill="#ED1C24" font-family="'MyriadPro-Regular'" font-size="12px">a</tspan><tspan x="39.5" y="28.8" fill="#ED1C24" font-family="'MyriadPro-Regular'" font-size="12px">t</tspan><tspan x="43.4" y="28.8" fill="#ED1C24" font-family="'MyriadPro-Regular'" font-size="12px">e: D</tspan><tspan x="62.5" y="28.8" fill="#ED1C24" font-family="'MyriadPro-Regular'" font-size="12px">a</tspan><tspan x="68.2" y="28.8" fill="#ED1C24" font-family="'MyriadPro-Regular'" font-size="12px">t</tspan><tspan x="72.1" y="28.8" fill="#ED1C24" font-family="'MyriadPro-Regular'" font-size="12px">e</tspan><tspan x="0" y="43.2" fill="#ED1C24" font-family="'MyriadPro-Regular'" font-size="12px">email: st</tspan><tspan x="41.2" y="43.2" fill="#ED1C24" font-family="'MyriadPro-Regular'" font-size="12px">r</tspan><tspan x="45.2" y="43.2" fill="#ED1C24" font-family="'MyriadPro-Regular'" font-size="12px">ing</tspan><tspan x="0" y="57.6" fill="#ED1C24" font-family="'MyriadPro-Regular'" font-size="12px">img: st</tspan><tspan x="33.3" y="57.6" fill="#ED1C24" font-family="'MyriadPro-Regular'" font-size="12px">r</tspan><tspan x="37.2" y="57.6" fill="#ED1C24" font-family="'MyriadPro-Regular'" font-size="12px">ing</tspan><tspan x="0" y="72" fill="#ED1C24" font-family="'MyriadPro-Regular'" font-size="12px">gende</tspan><tspan x="32.2" y="72" fill="#ED1C24" font-family="'MyriadPro-Regular'" font-size="12px">r</tspan><tspan x="36.2" y="72" fill="#ED1C24" font-family="'MyriadPro-Regular'" font-size="12px">: st</tspan><tspan x="49.9" y="72" fill="#ED1C24" font-family="'MyriadPro-Regular'" font-size="12px">r</tspan><tspan x="53.9" y="72" fill="#ED1C24" font-family="'MyriadPro-Regular'" font-size="12px">ing</tspan></text>
<text transform="matrix(1 0 0 1 81.5617 261.9279)" fill="#ED1C24" font-family="'MyriadPro-Regular'" font-size="12px">t</text>
<text transform="matrix(1 0 0 1 85.4617 261.9279)" fill="#ED1C24" font-family="'MyriadPro-Regular'" font-size="12px">.s: </text>
<text transform="matrix(1 0 0 1 97.7617 261.9279)" fill="#ED1C24" font-family="'MyriadPro-Regular'" font-size="12px">[</text>
<text transform="matrix(1 0 0 1 101.0617 261.9279)" fill="#0072BC" font-family="'MyriadPro-Regular'" font-size="12px">Obje</text>
<text transform="matrix(1 0 0 1 125.0617 261.9279)" fill="#0072BC" font-family="'MyriadPro-Regular'" font-size="12px">c</text>
<text transform="matrix(1 0 0 1 130.5617 261.9279)" fill="#0072BC" font-family="'MyriadPro-Regular'" font-size="12px">tI</text>
<text transform="matrix(1 0 0 1 137.4617 261.9279)" fill="#0072BC" font-family="'MyriadPro-Regular'" font-size="12px">D</text>
<text transform="matrix(1 0 0 1 145.3617 261.9279)" fill="#ED1C24" font-family="'MyriadPro-Regular'" font-size="12px">]</text>
<text transform="matrix(1 0 0 1 208.9262 73.1171)" enable-background="new    "><tspan x="0" y="0" fill="#0072BC" font-family="'MyriadPro-Regular'" font-size="12px">APPOINTMEN</tspan><tspan x="68.6" y="0" fill="#0072BC" font-family="'MyriadPro-Regular'" font-size="12px">T</tspan><tspan x="74.2" y="0" fill="#0072BC" font-family="'MyriadPro-Regular'" font-size="12px">:</tspan></text>
<text transform="matrix(1 0 0 1 208.9262 87.5171)" fill="#0072BC" font-family="'MyriadPro-Regular'" font-size="12px">w</text>
<text transform="matrix(1 0 0 1 217.7262 87.5171)" fill="#0072BC" font-family="'MyriadPro-Regular'" font-size="12px">alke</text>
<text transform="matrix(1 0 0 1 237.9262 87.5171)" fill="#0072BC" font-family="'MyriadPro-Regular'" font-size="12px">r</text>
<text transform="matrix(1 0 0 1 242.0262 87.5171)" fill="#0072BC" font-family="'MyriadPro-Regular'" font-size="12px">:</text>
<text transform="matrix(1 0 0 1 244.5262 87.5171)" fill="#ED1C24" font-family="'MyriadPro-Regular'" font-size="12px"> Obje</text>
<text transform="matrix(1 0 0 1 271.0262 87.5171)" fill="#ED1C24" font-family="'MyriadPro-Regular'" font-size="12px">c</text>
<text transform="matrix(1 0 0 1 276.6262 87.5171)" fill="#ED1C24" font-family="'MyriadPro-Regular'" font-size="12px">tID</text>
<text transform="matrix(1 0 0 1 208.9262 101.9171)" fill="#0072BC" font-family="'MyriadPro-Regular'" font-size="12px">dog: </text>
<text transform="matrix(1 0 0 1 234.0262 101.9171)" fill="#00A651" font-family="'MyriadPro-Regular'" font-size="12px">Obje</text>
<text transform="matrix(1 0 0 1 258.0262 101.9171)" fill="#00A651" font-family="'MyriadPro-Regular'" font-size="12px">c</text>
<text transform="matrix(1 0 0 1 263.5262 101.9171)" fill="#00A651" font-family="'MyriadPro-Regular'" font-size="12px">tID</text>
<text transform="matrix(1 0 0 1 208.9262 116.3171)" fill="#0072BC" font-family="'MyriadPro-Regular'" font-size="12px">time slot ID: Obje</text>
<text transform="matrix(1 0 0 1 294.8262 116.3171)" fill="#0072BC" font-family="'MyriadPro-Regular'" font-size="12px">c</text>
<text transform="matrix(1 0 0 1 300.4262 116.3171)" fill="#0072BC" font-family="'MyriadPro-Regular'" font-size="12px">tID</text>
<text transform="matrix(1 0 0 1 342.316 175.5276)" fill="#00A651" font-family="'MyriadPro-Regular'" font-size="12px">DOGS</text>
<text transform="matrix(1 0 0 1 342.316 189.9276)" fill="#00A651" font-family="'MyriadPro-Regular'" font-size="12px">dogID: Obje</text>
<text transform="matrix(1 0 0 1 402.316 189.9276)" fill="#00A651" font-family="'MyriadPro-Regular'" font-size="12px">c</text>
<text transform="matrix(1 0 0 1 407.816 189.9276)" fill="#00A651" font-family="'MyriadPro-Regular'" font-size="12px">tID</text>
<text transform="matrix(1 0 0 1 342.316 204.3276)" fill="#00A651" font-family="'MyriadPro-Regular'" font-size="12px">name: st</text>
<text transform="matrix(1 0 0 1 384.516 204.3276)" fill="#00A651" font-family="'MyriadPro-Regular'" font-size="12px">r</text>
<text transform="matrix(1 0 0 1 388.516 204.3276)" fill="#00A651" font-family="'MyriadPro-Regular'" font-size="12px">ing</text>
<text transform="matrix(1 0 0 1 342.316 218.7276)" fill="#00A651" font-family="'MyriadPro-Regular'" font-size="12px">b</text>
<text transform="matrix(1 0 0 1 349.116 218.7276)" fill="#00A651" font-family="'MyriadPro-Regular'" font-size="12px">r</text>
<text transform="matrix(1 0 0 1 352.916 218.7276)" fill="#00A651" font-family="'MyriadPro-Regular'" font-size="12px">eed: st</text>
<text transform="matrix(1 0 0 1 385.516 218.7276)" fill="#00A651" font-family="'MyriadPro-Regular'" font-size="12px">r</text>
<text transform="matrix(1 0 0 1 389.416 218.7276)" fill="#00A651" font-family="'MyriadPro-Regular'" font-size="12px">ing</text>
<text transform="matrix(1 0 0 1 342.316 233.1276)" fill="#00A651" font-family="'MyriadPro-Regular'" font-size="12px">img: st</text>
<text transform="matrix(1 0 0 1 375.616 233.1276)" fill="#00A651" font-family="'MyriadPro-Regular'" font-size="12px">r</text>
<text transform="matrix(1 0 0 1 379.516 233.1276)" fill="#00A651" font-family="'MyriadPro-Regular'" font-size="12px">ing</text>
<text transform="matrix(1 0 0 1 342.316 247.5276)" fill="#00A651" font-family="'MyriadPro-Regular'" font-size="12px">w</text>
<text transform="matrix(1 0 0 1 351.116 247.5276)" fill="#00A651" font-family="'MyriadPro-Regular'" font-size="12px">alk st</text>
<text transform="matrix(1 0 0 1 376.616 247.5276)" fill="#00A651" font-family="'MyriadPro-Regular'" font-size="12px">a</text>
<text transform="matrix(1 0 0 1 382.316 247.5276)" fill="#00A651" font-family="'MyriadPro-Regular'" font-size="12px">tus </text>
<text transform="matrix(1 0 0 1 400.216 247.5276)" fill="#00A651" font-family="'MyriadPro-Regular'" font-size="12px">[</text>
<text transform="matrix(1 0 0 1 403.516 247.5276)" fill="#0072BC" font-family="'MyriadPro-Regular'" font-size="12px">Obje</text>
<text transform="matrix(1 0 0 1 427.516 247.5276)" fill="#0072BC" font-family="'MyriadPro-Regular'" font-size="12px">c</text>
<text transform="matrix(1 0 0 1 433.016 247.5276)" fill="#0072BC" font-family="'MyriadPro-Regular'" font-size="12px">tI</text>
<text transform="matrix(1 0 0 1 439.916 247.5276)" fill="#0072BC" font-family="'MyriadPro-Regular'" font-size="12px">D</text>
<text transform="matrix(1 0 0 1 447.816 247.5276)" fill="#00A651" font-family="'MyriadPro-Regular'" font-size="12px">]</text>
<line fill="none" stroke="#000000" stroke-miterlimit="10" x1="82.6" y1="159.5" x2="82.6" y2="93.5"/>
<line fill="none" stroke="#000000" stroke-miterlimit="10" x1="172.2" y1="93.5" x2="82.6" y2="93.5"/>
<g>
	<line fill="none" stroke="#000000" stroke-miterlimit="10" x1="343.3" y1="81" x2="357.6" y2="94.2"/>
	<line fill="none" stroke="#000000" stroke-miterlimit="10" x1="357.6" y1="94.2" x2="343.3" y2="104.2"/>
</g>
<line fill="none" stroke="#000000" stroke-miterlimit="10" x1="432.9" y1="160.5" x2="432.9" y2="94.6"/>
<line fill="none" stroke="#000000" stroke-miterlimit="10" x1="343.3" y1="94.6" x2="432.9" y2="94.6"/>
<circle fill="#FFFFFF" stroke="#000000" stroke-miterlimit="10" cx="148.9" cy="93.5" r="4.6"/>
<circle fill="#FFFFFF" stroke="#000000" stroke-miterlimit="10" cx="365" cy="95.1" r="4.6"/>
<circle fill="#FFFFFF" stroke="#000000" stroke-miterlimit="10" cx="82.6" cy="149" r="4.6"/>
<circle fill="#FFFFFF" stroke="#000000" stroke-miterlimit="10" cx="432.9" cy="146" r="4.6"/>
</svg>
