<?xml version="1.0" encoding="utf-8"?>
<!-- Generator: Adobe Illustrator 24.1.0, SVG Export Plug-In . SVG Version: 6.00 Build 0)  -->
<svg version="1.1" id="Layer_1" xmlns="http://www.w3.org/2000/svg" xmlns:xlink="http://www.w3.org/1999/xlink" x="0px" y="0px"
	 viewBox="0 0 504 360" enable-background="new 0 0 504 360" xml:space="preserve">
<rect x="44.9" y="129.5" fill="#FFFFFF" stroke="#000000" stroke-miterlimit="10" width="132.2" height="98.1"/>
<rect x="326.4" y="130.8" fill="#FFFFFF" stroke="#000000" stroke-miterlimit="10" width="132.2" height="98.1"/>
<polygon fill="#FFFFFF" stroke="#000000" stroke-miterlimit="10" points="257.6,161 283.6,178.4 256.9,196 231.7,178.4 "/>
<line fill="none" stroke="#000000" stroke-miterlimit="10" x1="177.1" y1="178.5" x2="231.7" y2="178.5"/>
<line fill="none" stroke="#000000" stroke-miterlimit="10" x1="283.6" y1="178.4" x2="326.4" y2="178.4"/>
<line fill="none" stroke="#000000" stroke-miterlimit="10" x1="312.1" y1="178.4" x2="326.4" y2="165.2"/>
<line fill="none" stroke="#000000" stroke-miterlimit="10" x1="326.4" y1="188.4" x2="312.1" y2="178.4"/>
<circle fill="#FFFFFF" stroke="#000000" stroke-miterlimit="10" cx="302.7" cy="178.4" r="4.6"/>
<text transform="matrix(1 0 0 1 72.5986 158.4712)"><tspan x="0" y="0" font-family="'MyriadPro-Bold'" font-size="17px">USERS</tspan><tspan x="0" y="14.4" font-family="'MyriadPro-Regular'" font-size="12px">use</tspan><tspan x="17.4" y="14.4" font-family="'MyriadPro-Regular'" font-size="12px">r</tspan><tspan x="21.3" y="14.4" font-family="'MyriadPro-Regular'" font-size="12px">name</tspan><tspan x="0" y="28.8" font-family="'MyriadPro-Regular'" font-size="12px">pass</tspan><tspan x="22.1" y="28.8" font-family="'MyriadPro-Regular'" font-size="12px">w</tspan><tspan x="30.8" y="28.8" font-family="'MyriadPro-Regular'" font-size="12px">o</tspan><tspan x="37.4" y="28.8" font-family="'MyriadPro-Regular'" font-size="12px">r</tspan><tspan x="41.2" y="28.8" font-family="'MyriadPro-Regular'" font-size="12px">d</tspan><tspan x="0" y="43.2" font-family="'MyriadPro-Regular'" font-size="12px">dog </tspan><tspan x="22.6" y="43.2" font-family="'MyriadPro-Regular'" font-size="12px">r</tspan><tspan x="26.4" y="43.2" font-family="'MyriadPro-Regular'" font-size="12px">os</tspan><tspan x="37.8" y="43.2" font-family="'MyriadPro-Regular'" font-size="12px">t</tspan><tspan x="41.7" y="43.2" font-family="'MyriadPro-Regular'" font-size="12px">er</tspan></text>
<text transform="matrix(1 0 0 1 360.5829 155.0426)"><tspan x="0" y="0" font-family="'MyriadPro-Bold'" font-size="16px">DOGS</tspan><tspan x="0" y="14.4" font-family="'MyriadPro-Regular'" font-size="12px">name</tspan><tspan x="0" y="28.8" font-family="'MyriadPro-Regular'" font-size="12px">b</tspan><tspan x="6.8" y="28.8" font-family="'MyriadPro-Regular'" font-size="12px">r</tspan><tspan x="10.6" y="28.8" font-family="'MyriadPro-Regular'" font-size="12px">eed</tspan><tspan x="0" y="43.2" font-family="'MyriadPro-Regular'" font-size="12px">assi</tspan><tspan x="18.1" y="43.2" font-family="'MyriadPro-Regular'" font-size="12px">g</tspan><tspan x="24.7" y="43.2" font-family="'MyriadPro-Regular'" font-size="12px">ned </tspan><tspan x="46.7" y="43.2" font-family="'MyriadPro-Regular'" font-size="12px">w</tspan><tspan x="55.5" y="43.2" font-family="'MyriadPro-Regular'" font-size="12px">alker</tspan><tspan x="0" y="57.6" font-family="'MyriadPro-Regular'" font-size="12px">pho</tspan><tspan x="20.1" y="57.6" font-family="'MyriadPro-Regular'" font-size="12px">t</tspan><tspan x="24" y="57.6" font-family="'MyriadPro-Regular'" font-size="12px">o</tspan></text>
</svg>
