<?xml version="1.0" encoding="utf-8"?>
<!-- Generator: Adobe Illustrator 24.1.0, SVG Export Plug-In . SVG Version: 6.00 Build 0)  -->
<svg version="1.1" id="Layer_1" xmlns="http://www.w3.org/2000/svg" xmlns:xlink="http://www.w3.org/1999/xlink" x="0px" y="0px"
	 viewBox="0 0 504 360" enable-background="new 0 0 504 360" xml:space="preserve">
<rect x="44.9" y="129.5" fill="#FFFFFF" stroke="#000000" stroke-miterlimit="10" width="132.2" height="98.1"/>
<rect x="326.4" y="130.8" fill="#FFFFFF" stroke="#000000" stroke-miterlimit="10" width="132.2" height="98.1"/>
<polygon fill="#FFFFFF" stroke="#000000" stroke-miterlimit="10" points="257.6,161 283.6,178.4 256.9,196 231.7,178.4 "/>
<line fill="none" stroke="#000000" stroke-miterlimit="10" x1="177.1" y1="178.5" x2="231.7" y2="178.5"/>
<line fill="none" stroke="#000000" stroke-miterlimit="10" x1="283.6" y1="178.4" x2="326.4" y2="178.4"/>
<line fill="none" stroke="#000000" stroke-miterlimit="10" x1="312.1" y1="178.4" x2="326.4" y2="165.2"/>
<line fill="none" stroke="#000000" stroke-miterlimit="10" x1="326.4" y1="188.4" x2="312.1" y2="178.4"/>
<circle fill="#FFFFFF" stroke="#000000" stroke-miterlimit="10" cx="302.7" cy="178.4" r="4.6"/>
<text transform="matrix(1 0 0 1 72.5986 158.4712)"><tspan x="0" y="0" font-family="'MyriadPro-Bold'" font-size="17px">USERS</tspan><tspan x="0" y="14.4" font-family="'MyriadPro-Regular'" font-size="12px">use</tspan><tspan x="17.4" y="14.4" font-family="'MyriadPro-Regular'" font-size="12px">r</tspan><tspan x="21.3" y="14.4" font-family="'MyriadPro-Regular'" font-size="12px">name</tspan><tspan x="0" y="28.8" font-family="'MyriadPro-Regular'" font-size="12px">pass</tspan><tspan x="22.1" y="28.8" font-family="'MyriadPro-Regular'" font-size="12px">w</tspan><tspan x="30.8" y="28.8" font-family="'MyriadPro-Regular'" font-size="12px">o</tspan><tspan x="37.4" y="28.8" font-family="'MyriadPro-Regular'" font-size="12px">r</tspan><tspan x="41.2" y="28.8" font-family="'MyriadPro-Regular'" font-size="12px">d</tspan><tspan x="0" y="43.2" font-family="'MyriadPro-Regular'" font-size="12px">full  </tspan><tspan x="20.9" y="43.2" font-family="'MyriadPro-Regular'" font-size="12px">w</tspan><tspan x="29.6" y="43.2" font-family="'MyriadPro-Regular'" font-size="12px">eek schedule</tspan></text>
<text transform="matrix(1.1214 0 0 1 343.0674 144.3564)"><tspan x="0" y="0" font-family="'MyriadPro-Bold'" font-size="14.2675px">DOGS</tspan><tspan x="0" y="12.8" font-family="'MyriadPro-Regular'" font-size="10.7006px">name</tspan><tspan x="0" y="25.7" font-family="'MyriadPro-Regular'" font-size="10.7006px">b</tspan><tspan x="6.1" y="25.7" font-family="'MyriadPro-Regular'" font-size="10.7006px">r</tspan><tspan x="9.5" y="25.7" font-family="'MyriadPro-Regular'" font-size="10.7006px">eed</tspan><tspan x="0" y="38.5" font-family="'MyriadPro-Regular'" font-size="10.7006px">pho</tspan><tspan x="17.9" y="38.5" font-family="'MyriadPro-Regular'" font-size="10.7006px">t</tspan><tspan x="21.4" y="38.5" font-family="'MyriadPro-Regular'" font-size="10.7006px">o</tspan><tspan x="0" y="51.4" font-family="'MyriadPro-Regular'" font-size="10.7006px">w</tspan><tspan x="7.8" y="51.4" font-family="'MyriadPro-Regular'" font-size="10.7006px">al</tspan><tspan x="15.5" y="51.4" font-family="'MyriadPro-Regular'" font-size="10.7006px">k</tspan><tspan x="20.7" y="51.4" font-family="'MyriadPro-Regular'" font-size="10.7006px">ing schedule</tspan><tspan x="0" y="64.2" font-family="'MyriadPro-Regular'" font-size="10.7006px">user </tspan><tspan x="21.3" y="64.2" font-family="'MyriadPro-Regular'" font-size="10.7006px">r</tspan><tspan x="24.7" y="64.2" font-family="'MyriadPro-Regular'" font-size="10.7006px">a</tspan><tspan x="29.8" y="64.2" font-family="'MyriadPro-Regular'" font-size="10.7006px">ting</tspan><tspan x="0" y="77" font-family="'MyriadPro-Regular'" font-size="10.7006px">health </tspan><tspan x="30.7" y="77" font-family="'MyriadPro-Regular'" font-size="10.7006px">r</tspan><tspan x="34.2" y="77" font-family="'MyriadPro-Regular'" font-size="10.7006px">a</tspan><tspan x="39.3" y="77" font-family="'MyriadPro-Regular'" font-size="10.7006px">ting</tspan></text>
<line fill="none" stroke="#000000" stroke-miterlimit="10" x1="192" y1="178.4" x2="177.6" y2="165.2"/>
<line fill="none" stroke="#000000" stroke-miterlimit="10" x1="177.6" y1="188.4" x2="192" y2="178.4"/>
<circle fill="#FFFFFF" stroke="#000000" stroke-miterlimit="10" cx="201.4" cy="178.4" r="4.6"/>
</svg>
