<?xml version="1.0" encoding="utf-8"?>
<!-- Generator: Adobe Illustrator 24.1.0, SVG Export Plug-In . SVG Version: 6.00 Build 0)  -->
<svg version="1.1" id="Layer_1" xmlns="http://www.w3.org/2000/svg" xmlns:xlink="http://www.w3.org/1999/xlink" x="0px" y="0px"
	 viewBox="0 0 504 360" style="enable-background:new 0 0 504 360;" xml:space="preserve">
<style type="text/css">
	.st0{fill:#FFFFFF;stroke:#000000;stroke-miterlimit:10;}
	.st1{fill:none;stroke:#000000;stroke-miterlimit:10;}
	.st2{fill:#ED1C24;}
	.st3{font-family:'MyriadPro-Regular';}
	.st4{font-size:12px;}
	.st5{fill:#0072BC;}
	.st6{fill:#00A651;}
</style>
<rect x="172.2" y="46" class="st0" width="170.9" height="98.1"/>
<rect x="16.2" y="159.5" class="st0" width="204.9" height="184.2"/>
<rect x="336.4" y="160.8" class="st0" width="132.2" height="98.1"/>
<g>
	<line class="st1" x1="157.9" y1="93.1" x2="172.2" y2="79.9"/>
	<line class="st1" x1="172.2" y1="103.1" x2="157.9" y2="93.1"/>
</g>
<text transform="matrix(1 0 0 1 21.1617 175.5279)" class="st2 st3 st4">USER</text>
<text transform="matrix(1 0 0 1 21.1617 189.9279)" class="st2 st3 st4">userID: Obje</text>
<text transform="matrix(1 0 0 1 82.3617 189.9279)" class="st2 st3 st4">c</text>
<text transform="matrix(1 0 0 1 87.8617 189.9279)" class="st2 st3 st4">tID</text>
<text transform="matrix(1 0 0 1 21.1617 204.3279)" class="st2 st3 st4">pass</text>
<text transform="matrix(1 0 0 1 43.2617 204.3279)" class="st2 st3 st4">w</text>
<text transform="matrix(1 0 0 1 51.9617 204.3279)" class="st2 st3 st4">o</text>
<text transform="matrix(1 0 0 1 58.5617 204.3279)" class="st2 st3 st4">r</text>
<text transform="matrix(1 0 0 1 62.3617 204.3279)" class="st2 st3 st4">d: st</text>
<text transform="matrix(1 0 0 1 82.8617 204.3279)" class="st2 st3 st4">r</text>
<text transform="matrix(1 0 0 1 86.8617 204.3279)" class="st2 st3 st4">ing</text>
<text transform="matrix(1 0 0 1 21.1617 218.7279)" class="st2 st3 st4">user name: st</text>
<text transform="matrix(1 0 0 1 87.2617 218.7279)" class="st2 st3 st4">r</text>
<text transform="matrix(1 0 0 1 91.1617 218.7279)" class="st2 st3 st4">ing</text>
<text transform="matrix(1 0 0 1 21.1617 233.1279)" class="st2 st3 st4">user img: st</text>
<text transform="matrix(1 0 0 1 78.2617 233.1279)" class="st2 st3 st4">r</text>
<text transform="matrix(1 0 0 1 82.2617 233.1279)" class="st2 st3 st4">ing</text>
<text transform="matrix(1 0 0 1 21.1617 247.5279)" class="st2 st3 st4">timestamp(user c</text>
<text transform="matrix(1 0 0 1 107.9617 247.5279)" class="st2 st3 st4">r</text>
<text transform="matrix(1 0 0 1 111.7617 247.5279)" class="st2 st3 st4">e</text>
<text transform="matrix(1 0 0 1 117.7617 247.5279)" class="st2 st3 st4">a</text>
<text transform="matrix(1 0 0 1 123.4617 247.5279)" class="st2 st3 st4">tion d</text>
<text transform="matrix(1 0 0 1 152.8617 247.5279)" class="st2 st3 st4">a</text>
<text transform="matrix(1 0 0 1 158.5617 247.5279)" class="st2 st3 st4">t</text>
<text transform="matrix(1 0 0 1 162.4617 247.5279)" class="st2 st3 st4">e): st</text>
<text transform="matrix(1 0 0 1 185.6617 247.5279)" class="st2 st3 st4">r</text>
<text transform="matrix(1 0 0 1 189.5617 247.5279)" class="st2 st3 st4">ing</text>
<text transform="matrix(1 0 0 1 21.1617 261.9279)" class="st2 st3 st4">booked app</text>
<text transform="matrix(1 0 0 1 21.1617 276.3279)" class="st2 st3 st4">full name: st</text>
<text transform="matrix(1 0 0 1 81.6617 276.3279)" class="st2 st3 st4">r</text>
<text transform="matrix(1 0 0 1 85.6617 276.3279)" class="st2 st3 st4">ing</text>
<text transform="matrix(1 0 0 1 21.1617 290.7279)" class="st2 st3 st4">bi</text>
<text transform="matrix(1 0 0 1 30.7617 290.7279)" class="st2 st3 st4">r</text>
<text transform="matrix(1 0 0 1 34.9617 290.7279)" class="st2 st3 st4">th d</text>
<text transform="matrix(1 0 0 1 54.9617 290.7279)" class="st2 st3 st4">a</text>
<text transform="matrix(1 0 0 1 60.6617 290.7279)" class="st2 st3 st4">t</text>
<text transform="matrix(1 0 0 1 64.5617 290.7279)" class="st2 st3 st4">e: D</text>
<text transform="matrix(1 0 0 1 83.6617 290.7279)" class="st2 st3 st4">a</text>
<text transform="matrix(1 0 0 1 89.3617 290.7279)" class="st2 st3 st4">t</text>
<text transform="matrix(1 0 0 1 93.2617 290.7279)" class="st2 st3 st4">e</text>
<text transform="matrix(1 0 0 1 21.1617 305.1279)" class="st2 st3 st4">email: st</text>
<text transform="matrix(1 0 0 1 62.3617 305.1279)" class="st2 st3 st4">r</text>
<text transform="matrix(1 0 0 1 66.3617 305.1279)" class="st2 st3 st4">ing</text>
<text transform="matrix(1 0 0 1 21.1617 319.5279)" class="st2 st3 st4">img: st</text>
<text transform="matrix(1 0 0 1 54.4617 319.5279)" class="st2 st3 st4">r</text>
<text transform="matrix(1 0 0 1 58.3617 319.5279)" class="st2 st3 st4">ing</text>
<text transform="matrix(1 0 0 1 21.1617 333.9279)" class="st2 st3 st4">gende</text>
<text transform="matrix(1 0 0 1 53.3617 333.9279)" class="st2 st3 st4">r</text>
<text transform="matrix(1 0 0 1 57.3617 333.9279)" class="st2 st3 st4">: st</text>
<text transform="matrix(1 0 0 1 71.0617 333.9279)" class="st2 st3 st4">r</text>
<text transform="matrix(1 0 0 1 75.0617 333.9279)" class="st2 st3 st4">ing</text>
<text transform="matrix(1 0 0 1 81.5617 261.9279)" class="st2 st3 st4">t</text>
<text transform="matrix(1 0 0 1 85.4617 261.9279)" class="st2 st3 st4">.s: </text>
<text transform="matrix(1 0 0 1 97.7617 261.9279)" class="st2 st3 st4">[</text>
<text transform="matrix(1 0 0 1 101.0617 261.9279)" class="st5 st3 st4">Obje</text>
<text transform="matrix(1 0 0 1 125.0617 261.9279)" class="st5 st3 st4">c</text>
<text transform="matrix(1 0 0 1 130.5617 261.9279)" class="st5 st3 st4">tI</text>
<text transform="matrix(1 0 0 1 137.4617 261.9279)" class="st5 st3 st4">D</text>
<text transform="matrix(1 0 0 1 145.3617 261.9279)" class="st2 st3 st4">]</text>
<text transform="matrix(1 0 0 1 208.9262 73.1171)" class="st5 st3 st4">APPOINTMEN</text>
<text transform="matrix(1 0 0 1 277.5262 73.1171)" class="st5 st3 st4">T</text>
<text transform="matrix(1 0 0 1 283.1262 73.1171)" class="st5 st3 st4">:</text>
<text transform="matrix(1 0 0 1 208.9262 87.5171)" class="st5 st3 st4">w</text>
<text transform="matrix(1 0 0 1 217.7262 87.5171)" class="st5 st3 st4">alke</text>
<text transform="matrix(1 0 0 1 237.9262 87.5171)" class="st5 st3 st4">r</text>
<text transform="matrix(1 0 0 1 242.0262 87.5171)" class="st5 st3 st4">:</text>
<text transform="matrix(1 0 0 1 244.5262 87.5171)" class="st2 st3 st4"> Obje</text>
<text transform="matrix(1 0 0 1 271.0262 87.5171)" class="st2 st3 st4">c</text>
<text transform="matrix(1 0 0 1 276.6262 87.5171)" class="st2 st3 st4">tID</text>
<text transform="matrix(1 0 0 1 208.9262 101.9171)" class="st5 st3 st4">dog: </text>
<text transform="matrix(1 0 0 1 234.0262 101.9171)" class="st6 st3 st4">Obje</text>
<text transform="matrix(1 0 0 1 258.0262 101.9171)" class="st6 st3 st4">c</text>
<text transform="matrix(1 0 0 1 263.5262 101.9171)" class="st6 st3 st4">tID</text>
<text transform="matrix(1 0 0 1 208.9262 116.3171)" class="st5 st3 st4">time slot ID: Obje</text>
<text transform="matrix(1 0 0 1 294.8262 116.3171)" class="st5 st3 st4">c</text>
<text transform="matrix(1 0 0 1 300.4262 116.3171)" class="st5 st3 st4">tID</text>
<text transform="matrix(1 0 0 1 342.316 175.5276)" class="st6 st3 st4">DOGS</text>
<text transform="matrix(1 0 0 1 342.316 189.9276)" class="st6 st3 st4">dogID: Obje</text>
<text transform="matrix(1 0 0 1 402.316 189.9276)" class="st6 st3 st4">c</text>
<text transform="matrix(1 0 0 1 407.816 189.9276)" class="st6 st3 st4">tID</text>
<text transform="matrix(1 0 0 1 342.316 204.3276)" class="st6 st3 st4">name: st</text>
<text transform="matrix(1 0 0 1 384.516 204.3276)" class="st6 st3 st4">r</text>
<text transform="matrix(1 0 0 1 388.516 204.3276)" class="st6 st3 st4">ing</text>
<text transform="matrix(1 0 0 1 342.316 218.7276)" class="st6 st3 st4">b</text>
<text transform="matrix(1 0 0 1 349.116 218.7276)" class="st6 st3 st4">r</text>
<text transform="matrix(1 0 0 1 352.916 218.7276)" class="st6 st3 st4">eed: st</text>
<text transform="matrix(1 0 0 1 385.516 218.7276)" class="st6 st3 st4">r</text>
<text transform="matrix(1 0 0 1 389.416 218.7276)" class="st6 st3 st4">ing</text>
<text transform="matrix(1 0 0 1 342.316 233.1276)" class="st6 st3 st4">img: st</text>
<text transform="matrix(1 0 0 1 375.616 233.1276)" class="st6 st3 st4">r</text>
<text transform="matrix(1 0 0 1 379.516 233.1276)" class="st6 st3 st4">ing</text>
<text transform="matrix(1 0 0 1 342.316 247.5276)" class="st6 st3 st4">w</text>
<text transform="matrix(1 0 0 1 351.116 247.5276)" class="st6 st3 st4">alk st</text>
<text transform="matrix(1 0 0 1 376.616 247.5276)" class="st6 st3 st4">a</text>
<text transform="matrix(1 0 0 1 382.316 247.5276)" class="st6 st3 st4">tus </text>
<text transform="matrix(1 0 0 1 400.216 247.5276)" class="st6 st3 st4">[</text>
<text transform="matrix(1 0 0 1 403.516 247.5276)" class="st5 st3 st4">Obje</text>
<text transform="matrix(1 0 0 1 427.516 247.5276)" class="st5 st3 st4">c</text>
<text transform="matrix(1 0 0 1 433.016 247.5276)" class="st5 st3 st4">tI</text>
<text transform="matrix(1 0 0 1 439.916 247.5276)" class="st5 st3 st4">D</text>
<text transform="matrix(1 0 0 1 447.816 247.5276)" class="st6 st3 st4">]</text>
<line class="st1" x1="82.6" y1="159.5" x2="82.6" y2="93.5"/>
<line class="st1" x1="172.2" y1="93.5" x2="82.6" y2="93.5"/>
<g>
	<line class="st1" x1="343.3" y1="81" x2="357.6" y2="94.2"/>
	<line class="st1" x1="357.6" y1="94.2" x2="343.3" y2="104.2"/>
</g>
<line class="st1" x1="432.9" y1="160.5" x2="432.9" y2="94.6"/>
<line class="st1" x1="343.3" y1="94.6" x2="432.9" y2="94.6"/>
<circle class="st0" cx="148.9" cy="93.5" r="4.6"/>
<circle class="st0" cx="365" cy="95.1" r="4.6"/>
<circle class="st0" cx="82.6" cy="149" r="4.6"/>
<circle class="st0" cx="432.9" cy="146" r="4.6"/>
</svg>
