<?xml version="1.0" encoding="utf-8"?>
<!-- Generator: Adobe Illustrator 24.1.0, SVG Export Plug-In . SVG Version: 6.00 Build 0)  -->
<svg version="1.1" id="Layer_1" xmlns="http://www.w3.org/2000/svg" xmlns:xlink="http://www.w3.org/1999/xlink" x="0px" y="0px"
	 viewBox="0 0 740.1 516.5" enable-background="new 0 0 740.1 516.5" xml:space="preserve">
<g>
	<path fill="#0174DA" d="M717.8,309.7c0,11,0,22.1,0,33.1c-0.1,0.4-0.3,0.9-0.4,1.3c-0.6,3.7-0.9,7.5-1.9,11.1
		c-4.3,16.2-8.8,32.4-13.3,48.5c-0.2,0.8-0.5,1.5-0.8,2.3c-0.9,1.9-2,2.4-3.8,1.3c-1.8-1-3.5-2.2-5.1-3.5c-4.7-3.7-9.9-6.5-15.3-8.8
		c-22.3-9.3-45.5-15.3-69.1-20.1c-8.1-1.7-16.4-3-24.4-5.1c-23.5-6.2-47-12.8-70.5-19.1c-8.8-2.4-17.5-4.9-25.6-9.2
		c-11.1-5.8-22.4-11.4-33.5-17.1c-2.2-1.1-4.6-1.9-7-2.3c-7.7-1.3-15.4-2.6-23.2-3.9c-18.7-3.2-37.3-6.3-56-9.5
		c-1.5-0.3-2.8-0.1-4.2,0.3c-20.7,6-41.8,9.1-63.2,10.9c-8.6,0.7-17.2,1.5-25.8,2.2c-3.6,0.3-7.1,1-10.7,1c-21.4,0.1-42.7,0-64.1,0
		c-0.8,0-1.6,0-2.4,0c-4.9-0.4-9.7-0.8-14.6-1.2c-0.5,0-1,0.1-1.8,0.2c3.9,20,7.7,39.8,11.5,59.7c3.8,19.9,7.8,39.7,11.5,59.7
		c-3.1,0.6-5.9,1.2-9,1.8c-4.9-24.8-9.7-49.4-14.7-74.6c-3.9,6-8.1,10.7-13.7,14.4c-10.3-16.4-11.2-33.1-4.1-50.6
		c-7.4,7.8-15.9,13.8-26.2,16.9c-10.3,3.2-20.7,3.4-31.3,0.3c0.6-0.9,0.9-1.5,1.3-2.1c2.9-4.1,6.2-7.9,10-11.3
		c13.2-11.8,28.9-17.6,46.3-19.3c2.5-0.2,4.9-0.4,7.6-0.6c-0.5-2.6-1-5.1-1.4-7.6c-0.7-3.4-1.2-6.8-2-10.1c-0.7-2.7-2-3.7-4.8-3.7
		c-1.3,0-2.6,0.1-3.8,0.2c-8.9,0.6-17.7,1.2-26.6,1.7c-9.4,0.6-18.8,1.1-28.3,1.6c-10.2,0.6-20.4,1.1-30.7,1.8
		c-4.7,0.3-8.5-1.1-12-4.3c-15.2-13.5-30.5-26.8-45.8-40.2c-1-0.9-2.1-1.7-3.2-2.5c0-1.1,0-2.2,0-3.4c0.4-0.7,0.9-1.3,1.1-2
		c1.4-5.5,2.9-11,4.1-16.5c0.9-4.4,3.3-7.2,7.3-9.1c25.4-11.9,50.8-23.8,76.2-35.6c5.1-2.4,9.1-5.7,12.3-10.3
		c10.3-14.5,20.8-29,31.2-43.5c2.8-4,6.4-6.8,10.9-8.6c7.1-2.8,14.2-5.8,21.3-8.7c12.4-5.1,24.9-10.1,37.3-15.2
		c3.7-1.5,4.1-2.4,3.4-6.2c-3.7-18.7-7.3-37.5-11-56.2c-0.7-3.5-1.4-7.1-2-10.6s0.3-4.9,3.6-6.4c1.1-0.5,2-1.2,3-1.8
		c0.5,0,1,0,1.4,0c0.7,0.8,1.3,1.5,2,2.3c4.4,5.7,8.7,11.5,13.3,17c18.8,23,37.8,45.9,56.6,69c13.9,17.1,28.6,33.4,44.9,48.3
		c23.6,21.5,47.2,42.9,70.9,64.3c0.4,0.4,0.9,0.7,1.3,1c1.2-0.5,2.3-1,3.4-1.5c5.2-2.5,10.4-5,15.5-7.5
		c32.1-15.9,61.6-35.5,88.4-59.2c23.2-20.6,46.4-41.2,69.6-61.8c11.2-9.9,22.6-19.6,34.3-28.9c18.3-14.6,38.4-25.9,60-34.7
		c2.2-0.9,4.2-1.2,6.4-0.7c0.7,3.8,0.3,5-2.5,7.4c-0.4,0.3-0.7,0.6-1.1,0.9c-7.7,6.4-15.5,12.6-23,19.2
		c-13.4,11.7-22.9,25.9-28.1,43c-4.2,14.1-5,28.2-0.7,42.5c2.9,9.7,7.5,18.5,13.7,26.4c12.7,16.1,25.5,32,38.1,48.2
		c11.3,14.5,21.3,29.8,29,46.5c6.5,14,11.2,28.5,13.5,43.8C717.3,306.1,717.6,307.9,717.8,309.7z M179.3,312.2
		c1.5-0.8,2.5-1.3,3.6-1.8c13.9-7.2,27.8-14.5,42.3-20.4c19.9-8.2,40.1-15.3,60.4-22.5c34.8-12.2,69-25.6,102.6-40.7
		c0.9-0.4,1.8-0.9,2.9-1.4c-0.4-0.5-0.7-0.8-0.9-1c-17.1-15.5-34.2-31.1-51.3-46.6c-2.3-2.1-5-3.1-8.1-2.9c-1.1,0.1-2.2,0.1-3.4,0.2
		c-10.3,0.7-20.6,1.5-30.9,2.2c-9.7,0.7-19.5,1.4-29.2,2.1c-10,0.7-19.9,1.5-29.9,2.2c-9.6,0.7-19.3,1.4-28.9,2.1
		c-10.6,0.8-21.2,1.5-31.8,2.2c-7.7,0.5-15.5,1.1-23.2,1.6c-7.8,0.6-15.6,1.2-23.4,1.8c-2.6,0.2-5.3,0.3-7.9,0.7
		c-8.2,1.1-15.8,3.9-23.2,7.4c-22,10.4-44,20.8-66.1,31.1c-3.7,1.7-6.2,4.1-7.3,8c-0.3,1-0.6,2-0.9,3c-1.9,6.7-0.2,12.3,5.1,16.8
		c1.1,0.9,2.2,1.8,3.3,2.7c2.7,2.2,5.5,4.3,8.2,6.7c8.3,7.3,16.5,14.6,24.7,22c2.7,2.5,5.9,3.4,9.5,3.1c3.9-0.3,7.8-0.5,11.7-0.7
		c12.2-0.7,24.4-1.3,36.6-2.1c15.2-1,30.5-2,45.7-3c2.8-0.2,4.3,0.8,5.2,3.6c0.2,0.6,0.4,1.2,0.5,1.9c0.8,4,1.6,8,2.3,12
		C178,305.6,178.6,308.8,179.3,312.2z M151.9,137.4c51.1,3.3,101.7,6.6,152.2,9.8c0.1,0,0.2-0.1,0.2-0.1c0.1-0.1,0.1-0.1,0.2-0.4
		c-29.1-35.2-58.2-70.4-87.3-105.6c-0.1-0.1-0.4-0.1-1.2-0.4c6.1,32.3,12.3,64.3,18.4,96.5c-3.1,0.5-5.8,0.9-8.8,1.4
		c-2.1-10.4-4.2-20.4-6.3-30.7c-1.1,0.4-2,0.7-2.9,1c-6.9,2.8-13.7,5.6-20.6,8.4c-12.5,5.1-25,10.2-37.5,15.3
		C156,133.6,153.9,135,151.9,137.4z M192.4,164.2c-1.8-2.6-3.6-4-6.3-4.4c-7.8-0.9-15.5-2.1-23.3-3.1c-5.1-0.7-10.3-1.3-15.4-2
		c-3.3-0.4-4.5,0.3-5.7,3.4c-1.6,4.1-3.1,8.2-4.6,12.3c-0.2,0.5-0.2,1-0.3,1.8c2.7-0.4,5.2-0.7,7.6-1c9.9-1.4,19.8-2.7,29.6-4.1
		c5.1-0.7,10.1-1.4,15.2-2.1C190.2,165,191.1,164.6,192.4,164.2z"/>
	<text transform="matrix(1 0 0 1 24.666 482.0313)" fill="#0174DA" font-family="'Phosphate-Solid'" font-size="133.6311px">R</text>
	<text transform="matrix(1 0 0 1 102.566 482.0313)" fill="#0174DA" font-family="'Phosphate-Solid'" font-size="133.6311px">E</text>
	
		<text transform="matrix(1 0 0 1 162.666 482.0313)" fill="#0174DA" font-family="'Phosphate-Solid'" font-size="133.6311px" letter-spacing="-1">S</text>
	<text transform="matrix(1 0 0 1 220.866 482.0313)" fill="#0174DA" font-family="'Phosphate-Solid'" font-size="133.6311px">C</text>
	<text transform="matrix(1 0 0 1 301.566 482.0313)" fill="#0174DA" font-family="'Phosphate-Solid'" font-size="133.6311px">UEPUP</text>
</g>
<text transform="matrix(1 0 0 1 109.8516 770.2266)"><tspan x="0" y="0" font-family="'MyriadPro-Regular'" font-size="81.4234px">    -</tspan><tspan x="94" y="0" font-family="'MyriadPro-Regular'" font-size="81.4234px" letter-spacing="1">-</tspan><tspan x="120.2" y="0" font-family="'MyriadPro-Regular'" font-size="81.4234px">g</tspan><tspan x="165.2" y="0" font-family="'MyriadPro-Regular'" font-size="81.4234px">r</tspan><tspan x="191" y="0" font-family="'MyriadPro-Regular'" font-size="81.4234px">e</tspan><tspan x="231.8" y="0" font-family="'MyriadPro-Regular'" font-size="81.4234px" letter-spacing="1">y</tspan><tspan x="272.1" y="0" font-family="'MyriadPro-Regular'" font-size="81.4234px">: #dddddd;</tspan><tspan x="0" y="97.7" font-family="'MyriadPro-Regular'" font-size="81.4234px">    --lig</tspan><tspan x="202.8" y="97.7" font-family="'MyriadPro-Regular'" font-size="81.4234px">h</tspan><tspan x="247.7" y="97.7" font-family="'MyriadPro-Regular'" font-size="81.4234px">t: #0174da;</tspan><tspan x="0" y="195.4" font-family="'MyriadPro-Regular'" font-size="81.4234px">    -</tspan><tspan x="94" y="195.4" font-family="'MyriadPro-Regular'" font-size="81.4234px" letter-spacing="1">-</tspan><tspan x="120.5" y="195.4" font-family="'MyriadPro-Regular'" font-size="81.4234px">da</tspan><tspan x="205.7" y="195.4" font-family="'MyriadPro-Regular'" font-size="81.4234px">r</tspan><tspan x="232.6" y="195.4" font-family="'MyriadPro-Regular'" font-size="81.4234px">k</tspan><tspan x="271.6" y="195.4" font-family="'MyriadPro-Regular'" font-size="81.4234px">: #011e3e;</tspan></text>
</svg>
